<?xml version="1.0" encoding="UTF-8"?>
<svg width="18px" height="19px" viewBox="0 0 18 19" version="1.1" xmlns="http://www.w3.org/2000/svg" xmlns:xlink="http://www.w3.org/1999/xlink">
    <!-- Generator: Sketch 46.2 (44496) - http://www.bohemiancoding.com/sketch -->
    <title>arrow</title>
    <desc>Created with Sketch.</desc>
    <defs></defs>
    <g id="Welcome" stroke="none" stroke-width="1" fill="none" fill-rule="evenodd">
        <g id="Desktop" transform="translate(-420.000000, -562.000000)" fill="#FFFFFF">
            <g id="Slider" transform="translate(408.000000, 403.000000)">
                <g id="Left" transform="translate(0.000000, 148.000000)">
                    <path d="M29.1428776,19.8571343 C29.1428776,19.0982049 28.6406448,18.4285612 27.8370725,18.4285612 L19.9799202,18.4285612 L23.2500134,15.158468 C23.5178709,14.8906106 23.6741211,14.5223066 23.6741211,14.1428418 C23.6741211,13.7633771 23.5178709,13.3950731 23.2500134,13.1272156 L22.4129588,12.3013218 C22.1451014,12.0334643 21.7879581,11.8772141 21.4084934,11.8772141 C21.0290286,11.8772141 20.6607246,12.0334643 20.3928671,12.3013218 L13.1272335,19.5557947 C12.8705368,19.8236522 12.7142866,20.1919562 12.7142866,20.5714209 C12.7142866,20.9508856 12.8705368,21.3191897 13.1272335,21.5758864 L20.3928671,28.8526808 C20.6607246,29.1093775 21.0290286,29.2656277 21.4084934,29.2656277 C21.7879581,29.2656277 22.1562621,29.1093775 22.4129588,28.8526808 L23.2500134,28.0044655 C23.5178709,27.7477687 23.6741211,27.3794647 23.6741211,27 C23.6741211,26.6205353 23.5178709,26.2522313 23.2500134,25.9955345 L19.9799202,22.7142806 L27.8370725,22.7142806 C28.6406448,22.7142806 29.1428776,22.0446369 29.1428776,21.2857075 L29.1428776,19.8571343 Z" id="arrow"></path>
                </g>
            </g>
        </g>
    </g>
</svg>