<?xml version="1.0" encoding="UTF-8"?>
<svg width="18px" height="18px" viewBox="0 0 18 18" version="1.1" xmlns="http://www.w3.org/2000/svg" xmlns:xlink="http://www.w3.org/1999/xlink">
    <!-- Generator: Sketch 46.2 (44496) - http://www.bohemiancoding.com/sketch -->
    <title>ion-social-linkedin - Ionicons</title>
    <desc>Created with Sketch.</desc>
    <defs></defs>
    <g id="Welcome" stroke="none" stroke-width="1" fill="none" fill-rule="evenodd">
        <g id="Desktop" transform="translate(-954.000000, -32.000000)" fill="#000000">
            <g id="Top-icons" transform="translate(802.000000, 30.000000)">
                <path d="M168.546875,2 C168.953127,2 169.296874,2.13281117 169.578125,2.3984375 C169.859376,2.66406383 170,2.99999797 170,3.40625 L170,18.453125 C170,18.859377 169.859376,19.2187484 169.578125,19.53125 C169.296874,19.8437516 168.953127,20 168.546875,20 L153.546875,20 C153.140623,20 152.781252,19.8437516 152.46875,19.53125 C152.156248,19.2187484 152,18.859377 152,18.453125 L152,3.40625 C152,2.99999797 152.148436,2.66406383 152.445312,2.3984375 C152.742189,2.13281117 153.109373,2 153.546875,2 L168.546875,2 Z M157.578125,17 L157.578125,8.984375 L155,8.984375 L155,17 L157.578125,17 Z M155.375,7.390625 C155.625001,7.64062625 155.953123,7.765625 156.359375,7.765625 C156.765627,7.765625 157.101561,7.63281383 157.367188,7.3671875 C157.632814,7.10156117 157.765625,6.78125187 157.765625,6.40625 C157.765625,5.99999797 157.640626,5.66406383 157.390625,5.3984375 C157.140624,5.13281117 156.812502,5 156.40625,5 C155.999998,5 155.664064,5.13281117 155.398438,5.3984375 C155.132811,5.66406383 155,5.99999797 155,6.40625 C155,6.78125187 155.124999,7.10937359 155.375,7.390625 Z M167,17 L167,12.3125 C167,11.1562442 166.726565,10.281253 166.179688,9.6875 C165.63281,9.09374703 164.921879,8.796875 164.046875,8.796875 C163.10937,8.796875 162.328128,9.23437063 161.703125,10.109375 L161.703125,8.984375 L159.125,8.984375 L159.125,17 L161.703125,17 L161.703125,12.453125 C161.703125,12.1406234 161.734375,11.9218756 161.796875,11.796875 C162.046876,11.1718719 162.484372,10.859375 163.109375,10.859375 C163.984379,10.859375 164.421875,11.4374942 164.421875,12.59375 L164.421875,17 L167,17 Z" id="ion-social-linkedin---Ionicons"></path>
            </g>
        </g>
    </g>
</svg>