<?xml version="1.0" encoding="UTF-8"?>
<svg width="14px" height="18px" viewBox="0 0 14 18" version="1.1" xmlns="http://www.w3.org/2000/svg" xmlns:xlink="http://www.w3.org/1999/xlink">
    <!-- Generator: Sketch 46.2 (44496) - http://www.bohemiancoding.com/sketch -->
    <title>ion-document-text - Ionicons</title>
    <desc>Created with Sketch.</desc>
    <defs></defs>
    <g id="Welcome" stroke="none" stroke-width="1" fill="none" fill-rule="evenodd">
        <g id="Desktop" transform="translate(-908.000000, -32.000000)" fill="#000000">
            <g id="Top-icons" transform="translate(802.000000, 30.000000)">
                <path d="M119.40625,6.921875 C119.46875,7.10937594 119.5,7.26562437 119.5,7.390625 L119.5,18.875 C119.5,19.1875016 119.398439,19.4531239 119.195312,19.671875 C118.992186,19.8906261 118.750001,20 118.46875,20 L107.078125,20 C106.796874,20 106.546876,19.8906261 106.328125,19.671875 C106.109374,19.4531239 106,19.1875016 106,18.875 L106,3.125 C106,2.81249844 106.109374,2.54687609 106.328125,2.328125 C106.546876,2.10937391 106.796874,2 107.078125,2 L114.578125,2 C114.765626,2 114.90625,2.03124969 115,2.09375 C115.125001,2.15625031 115.234375,2.23437453 115.328125,2.328125 L119.265625,6.640625 L119.40625,6.921875 Z M108.25,7.390625 L108.25,7.859375 C108.25,7.95312547 108.296875,8 108.390625,8 L111.71875,8 C111.8125,8 111.859375,7.95312547 111.859375,7.859375 L111.859375,7.390625 C111.859375,7.29687453 111.8125,7.25 111.71875,7.25 L108.390625,7.25 C108.296875,7.25 108.25,7.29687453 108.25,7.390625 Z M108.25,13.390625 L108.25,13.859375 C108.25,13.9531255 108.296875,14 108.390625,14 L114.15625,14 C114.21875,14 114.25,13.9531255 114.25,13.859375 L114.25,13.390625 C114.25,13.2968745 114.21875,13.25 114.15625,13.25 L108.390625,13.25 C108.296875,13.25 108.25,13.2968745 108.25,13.390625 Z M115.75,16.859375 L115.75,16.390625 C115.75,16.2968745 115.71875,16.25 115.65625,16.25 L108.390625,16.25 C108.296875,16.25 108.25,16.2968745 108.25,16.390625 L108.25,16.859375 C108.25,16.9531255 108.296875,17 108.390625,17 L115.65625,17 C115.71875,17 115.75,16.9531255 115.75,16.859375 Z M117.25,10.859375 L117.25,10.390625 C117.25,10.2968745 117.21875,10.25 117.15625,10.25 L108.390625,10.25 C108.296875,10.25 108.25,10.2968745 108.25,10.390625 L108.25,10.859375 C108.25,10.9531255 108.296875,11 108.390625,11 L117.15625,11 C117.21875,11 117.25,10.9531255 117.25,10.859375 Z M115.046875,7.34375 L117.859375,7.34375 L114.53125,3.6875 L114.53125,6.78125 C114.53125,7.15625187 114.703123,7.34375 115.046875,7.34375 Z" id="ion-document-text---Ionicons"></path>
            </g>
        </g>
    </g>
</svg>