<?xml version="1.0" encoding="UTF-8"?>
<svg width="21px" height="22px" viewBox="0 0 21 22" version="1.1" xmlns="http://www.w3.org/2000/svg" xmlns:xlink="http://www.w3.org/1999/xlink">
    <!-- Generator: Sketch 46.2 (44496) - http://www.bohemiancoding.com/sketch -->
    <title>ion-social-github - Ionicons</title>
    <desc>Created with Sketch.</desc>
    <defs></defs>
    <g id="Welcome" stroke="none" stroke-width="1" fill="none" fill-rule="evenodd">
        <g id="Desktop" transform="translate(-802.000000, -30.000000)" fill="#000000">
            <g id="Top-icons" transform="translate(802.000000, 30.000000)">
                <path d="M3.046875,3.6875 C5.10938531,1.56248938 7.59373547,0.5 10.5,0.5 C13.4062645,0.5 15.8828023,1.55467695 17.9296875,3.6640625 C19.9765727,5.77344805 21,8.31248516 21,11.28125 C21,13.6250117 20.3281317,15.7343656 18.984375,17.609375 C17.6406183,19.4843844 15.9218855,20.7812464 13.828125,21.5 L13.640625,21.5 C13.2656231,21.5 13.078125,21.3125019 13.078125,20.9375 C13.078125,20.9062498 13.0859374,20.5546909 13.1015625,19.8828125 C13.1171876,19.2109341 13.125,18.5937528 13.125,18.03125 C13.125,17.1249955 12.8750025,16.4531272 12.375,16.015625 C13.8125072,15.8281241 14.976558,15.3671912 15.8671875,14.6328125 C16.757817,13.8984338 17.203125,12.5937594 17.203125,10.71875 C17.203125,9.59374437 16.8437536,8.62500406 16.125,7.8125 C16.4375016,6.90624547 16.4062519,5.95313 16.03125,4.953125 L15.796875,4.953125 C15.0781214,4.953125 14.1875053,5.32812125 13.125,6.078125 C12.2187455,5.82812375 11.3437542,5.703125 10.5,5.703125 C9.65624578,5.703125 8.78125453,5.82812375 7.875,6.078125 C6.81249469,5.32812125 5.92187859,4.953125 5.203125,4.953125 L4.96875,4.953125 C4.59374812,5.95313 4.56249844,6.90624547 4.875,7.8125 C4.15624641,8.62500406 3.796875,9.59374437 3.796875,10.71875 C3.796875,12.5937594 4.23437063,13.8984338 5.109375,14.6328125 C5.98437938,15.3671912 7.14061781,15.8281241 8.578125,16.015625 C8.23437328,16.3593767 8.01562547,16.8437469 7.921875,17.46875 C7.54687313,17.6562509 7.14062719,17.75 6.703125,17.75 C5.92187109,17.75 5.31250219,17.3593789 4.875,16.578125 C4.46874797,15.8906216 3.92187844,15.5156253 3.234375,15.453125 C2.57812172,15.453125 2.56249687,15.6718728 3.1875,16.109375 C3.65625234,16.3593763 4.04687344,16.8906209 4.359375,17.703125 C4.39062516,17.8281256 4.45312453,17.9765616 4.546875,18.1484375 C4.64062547,18.3203134 4.89843539,18.5468736 5.3203125,18.828125 C5.74218961,19.1093764 6.24999703,19.25 6.84375,19.25 C7.28125219,19.25 7.62499875,19.2187503 7.875,19.15625 L7.875,20.984375 C7.875,21.3281267 7.70312672,21.5 7.359375,21.5 L7.171875,21.5 C5.04686438,20.7812464 3.32031914,19.4921968 1.9921875,17.6328125 C0.664055859,15.7734282 0,13.6562619 0,11.28125 C0,8.31248516 1.01561484,5.78126047 3.046875,3.6875 Z" id="ion-social-github---Ionicons"></path>
            </g>
        </g>
    </g>
</svg>