<?xml version="1.0" encoding="UTF-8"?>
<svg width="21px" height="18px" viewBox="0 0 21 18" version="1.1" xmlns="http://www.w3.org/2000/svg" xmlns:xlink="http://www.w3.org/1999/xlink">
    <!-- Generator: Sketch 46.2 (44496) - http://www.bohemiancoding.com/sketch -->
    <title></title>
    <desc>Created with Sketch.</desc>
    <defs></defs>
    <g id="Welcome" stroke="none" stroke-width="1" fill="none" fill-rule="evenodd">
        <g id="Desktop" transform="translate(-855.000000, -32.000000)" fill="#000000">
            <g id="Top-icons" transform="translate(802.000000, 30.000000)">
                <path d="M71.984375,2.75 C72.5156277,2.75 72.984373,2.95312297 73.390625,3.359375 C73.796877,3.76562703 74,4.23437234 74,4.765625 L74,17.234375 C74,17.7656277 73.796877,18.234373 73.390625,18.640625 C72.984373,19.046877 72.5156277,19.25 71.984375,19.25 L55.015625,19.25 C54.4843723,19.25 54.015627,19.046877 53.609375,18.640625 C53.203123,18.234373 53,17.7656277 53,17.234375 L53,4.765625 C53,4.23437234 53.203123,3.76562703 53.609375,3.359375 C54.015627,2.95312297 54.4843723,2.75 55.015625,2.75 L71.984375,2.75 Z M71.75,7.015625 L71.75,5 L63.5,10.484375 L55.25,5 L55.25,7.015625 L63.5,12.5 L71.75,7.015625 Z" id=""></path>
            </g>
        </g>
    </g>
</svg>