<?xml version="1.0" encoding="UTF-8"?>
<svg width="170px" height="22px" viewBox="0 0 170 22" version="1.1" xmlns="http://www.w3.org/2000/svg" xmlns:xlink="http://www.w3.org/1999/xlink">
    <defs>
        <g id="foo">
            <path d="M3.046875,4.6875 C5.10938531,2.56248938 7.59373547,1.5 10.5,1.5 C13.4062645,1.5 15.8828023,2.55467695 17.9296875,4.6640625 C19.9765727,6.77344805 21,9.31248516 21,12.28125 C21,14.6250117 20.3281317,16.7343656 18.984375,18.609375 C17.6406183,20.4843844 15.9218855,21.7812464 13.828125,22.5 L13.640625,22.5 C13.2656231,22.5 13.078125,22.3125019 13.078125,21.9375 C13.078125,21.9062498 13.0859374,21.5546909 13.1015625,20.8828125 C13.1171876,20.2109341 13.125,19.5937528 13.125,19.03125 C13.125,18.1249955 12.8750025,17.4531272 12.375,17.015625 C13.8125072,16.8281241 14.976558,16.3671912 15.8671875,15.6328125 C16.757817,14.8984338 17.203125,13.5937594 17.203125,11.71875 C17.203125,10.5937444 16.8437536,9.62500406 16.125,8.8125 C16.4375016,7.90624547 16.4062519,6.95313 16.03125,5.953125 L15.796875,5.953125 C15.0781214,5.953125 14.1875053,6.32812125 13.125,7.078125 C12.2187455,6.82812375 11.3437542,6.703125 10.5,6.703125 C9.65624578,6.703125 8.78125453,6.82812375 7.875,7.078125 C6.81249469,6.32812125 5.92187859,5.953125 5.203125,5.953125 L4.96875,5.953125 C4.59374812,6.95313 4.56249844,7.90624547 4.875,8.8125 C4.15624641,9.62500406 3.796875,10.5937444 3.796875,11.71875 C3.796875,13.5937594 4.23437063,14.8984338 5.109375,15.6328125 C5.98437938,16.3671912 7.14061781,16.8281241 8.578125,17.015625 C8.23437328,17.3593767 8.01562547,17.8437469 7.921875,18.46875 C7.54687313,18.6562509 7.14062719,18.75 6.703125,18.75 C5.92187109,18.75 5.31250219,18.3593789 4.875,17.578125 C4.46874797,16.8906216 3.92187844,16.5156253 3.234375,16.453125 C2.57812172,16.453125 2.56249687,16.6718728 3.1875,17.109375 C3.65625234,17.3593763 4.04687344,17.8906209 4.359375,18.703125 C4.39062516,18.8281256 4.45312453,18.9765616 4.546875,19.1484375 C4.64062547,19.3203134 4.89843539,19.5468736 5.3203125,19.828125 C5.74218961,20.1093764 6.24999703,20.25 6.84375,20.25 C7.28125219,20.25 7.62499875,20.2187503 7.875,20.15625 L7.875,21.984375 C7.875,22.3281267 7.70312672,22.5 7.359375,22.5 L7.171875,22.5 C5.04686438,21.7812464 3.32031914,20.4921968 1.9921875,18.6328125 C0.664055859,16.7734282 0,14.6562619 0,12.28125 C0,9.31248516 1.01561484,6.78126047 3.046875,4.6875 Z" id="ion-social-github---Ionicons"></path>
        </g>
    </defs>
    <g id="Welcome" stroke="none" stroke-width="1" fill="none" fill-rule="evenodd">
        <g id="Desktop" transform="translate(-802.000000, -30.000000)" fill="#000000">
            <g id="foo" transform="translate(802.000000, 29.000000)">
                <path d="M71.984375,3.75 C72.5156277,3.75 72.984373,3.95312297 73.390625,4.359375 C73.796877,4.76562703 74,5.23437234 74,5.765625 L74,18.234375 C74,18.7656277 73.796877,19.234373 73.390625,19.640625 C72.984373,20.046877 72.5156277,20.25 71.984375,20.25 L55.015625,20.25 C54.4843723,20.25 54.015627,20.046877 53.609375,19.640625 C53.203123,19.234373 53,18.7656277 53,18.234375 L53,5.765625 C53,5.23437234 53.203123,4.76562703 53.609375,4.359375 C54.015627,3.95312297 54.4843723,3.75 55.015625,3.75 L71.984375,3.75 Z M71.75,8.015625 L71.75,6 L63.5,11.484375 L55.25,6 L55.25,8.015625 L63.5,13.5 L71.75,8.015625 Z" id=""></path>
                <path d="M119.40625,7.921875 C119.46875,8.10937594 119.5,8.26562437 119.5,8.390625 L119.5,19.875 C119.5,20.1875016 119.398439,20.4531239 119.195312,20.671875 C118.992186,20.8906261 118.750001,21 118.46875,21 L107.078125,21 C106.796874,21 106.546876,20.8906261 106.328125,20.671875 C106.109374,20.4531239 106,20.1875016 106,19.875 L106,4.125 C106,3.81249844 106.109374,3.54687609 106.328125,3.328125 C106.546876,3.10937391 106.796874,3 107.078125,3 L114.578125,3 C114.765626,3 114.90625,3.03124969 115,3.09375 C115.125001,3.15625031 115.234375,3.23437453 115.328125,3.328125 L119.265625,7.640625 L119.40625,7.921875 Z M108.25,8.390625 L108.25,8.859375 C108.25,8.95312547 108.296875,9 108.390625,9 L111.71875,9 C111.8125,9 111.859375,8.95312547 111.859375,8.859375 L111.859375,8.390625 C111.859375,8.29687453 111.8125,8.25 111.71875,8.25 L108.390625,8.25 C108.296875,8.25 108.25,8.29687453 108.25,8.390625 Z M108.25,14.390625 L108.25,14.859375 C108.25,14.9531255 108.296875,15 108.390625,15 L114.15625,15 C114.21875,15 114.25,14.9531255 114.25,14.859375 L114.25,14.390625 C114.25,14.2968745 114.21875,14.25 114.15625,14.25 L108.390625,14.25 C108.296875,14.25 108.25,14.2968745 108.25,14.390625 Z M115.75,17.859375 L115.75,17.390625 C115.75,17.2968745 115.71875,17.25 115.65625,17.25 L108.390625,17.25 C108.296875,17.25 108.25,17.2968745 108.25,17.390625 L108.25,17.859375 C108.25,17.9531255 108.296875,18 108.390625,18 L115.65625,18 C115.71875,18 115.75,17.9531255 115.75,17.859375 Z M117.25,11.859375 L117.25,11.390625 C117.25,11.2968745 117.21875,11.25 117.15625,11.25 L108.390625,11.25 C108.296875,11.25 108.25,11.2968745 108.25,11.390625 L108.25,11.859375 C108.25,11.9531255 108.296875,12 108.390625,12 L117.15625,12 C117.21875,12 117.25,11.9531255 117.25,11.859375 Z M115.046875,8.34375 L117.859375,8.34375 L114.53125,4.6875 L114.53125,7.78125 C114.53125,8.15625187 114.703123,8.34375 115.046875,8.34375 Z" id="ion-document-text---Ionicons"></path>
                <path d="M168.546875,3 C168.953127,3 169.296874,3.13281117 169.578125,3.3984375 C169.859376,3.66406383 170,3.99999797 170,4.40625 L170,19.453125 C170,19.859377 169.859376,20.2187484 169.578125,20.53125 C169.296874,20.8437516 168.953127,21 168.546875,21 L153.546875,21 C153.140623,21 152.781252,20.8437516 152.46875,20.53125 C152.156248,20.2187484 152,19.859377 152,19.453125 L152,4.40625 C152,3.99999797 152.148436,3.66406383 152.445312,3.3984375 C152.742189,3.13281117 153.109373,3 153.546875,3 L168.546875,3 Z M157.578125,18 L157.578125,9.984375 L155,9.984375 L155,18 L157.578125,18 Z M155.375,8.390625 C155.625001,8.64062625 155.953123,8.765625 156.359375,8.765625 C156.765627,8.765625 157.101561,8.63281383 157.367188,8.3671875 C157.632814,8.10156117 157.765625,7.78125187 157.765625,7.40625 C157.765625,6.99999797 157.640626,6.66406383 157.390625,6.3984375 C157.140624,6.13281117 156.812502,6 156.40625,6 C155.999998,6 155.664064,6.13281117 155.398438,6.3984375 C155.132811,6.66406383 155,6.99999797 155,7.40625 C155,7.78125187 155.124999,8.10937359 155.375,8.390625 Z M167,18 L167,13.3125 C167,12.1562442 166.726565,11.281253 166.179688,10.6875 C165.63281,10.093747 164.921879,9.796875 164.046875,9.796875 C163.10937,9.796875 162.328128,10.2343706 161.703125,11.109375 L161.703125,9.984375 L159.125,9.984375 L159.125,18 L161.703125,18 L161.703125,13.453125 C161.703125,13.1406234 161.734375,12.9218756 161.796875,12.796875 C162.046876,12.1718719 162.484372,11.859375 163.109375,11.859375 C163.984379,11.859375 164.421875,12.4374942 164.421875,13.59375 L164.421875,18 L167,18 Z" id="ion-social-linkedin---Ionicons"></path>
            </g>
        </g>
    </g>
</svg>